:FULLY-SPECIFIED
:DEGREES
2251
root 0.0472725 15.6915 -2.76555 4728.14 -97.7052 -4725.23
lowerback 4.21231 0.640161 -9.60604
upperback -1.60422 0.267038 -0.131188
thorax -4.10583 0.373134 5.23846
lowerneck -16.6901 0.301074 0.553916
upperneck 20.0627 0.748943 -2.75544
head 9.0684 0.0242053 -0.950441
rclavicle -7.95139e-015 -1.05356e-014
rhumerus -38.1349 -28.9162 -70.2491
rradius 12.9368
rwrist 26.247
rhand -29.7391 -17.3318
rfingers 7.12502
rthumb -3.06554 -47.2895
lclavicle -7.95139e-015 -1.05356e-014
lhumerus -16.2806 -11.1119 89.4577
lradius 32.042
lwrist 10.885
lhand -33.1128 15.5311
lfingers 7.12502
lthumb -6.32313 45.4167
rfemur -31.0077 3.96462 15.3535
rtibia 34.6668
rfoot -19.7001 -25.5457
rtoes -10.8323
lfemur 1.30579 -5.37167 -32.1728
ltibia 15.7353
lfoot -12.4923 7.75152
ltoes -11.8086
2252
root 0.0683077 15.7014 -2.77134 4729.11 -97.6845 -4726.1
lowerback 4.08089 0.664414 -9.61238
upperback -1.5435 0.316453 -0.149512
thorax -3.97498 0.389256 5.21928
lowerneck -16.731 0.268749 0.502466
upperneck 20.0082 0.726324 -2.7874
head 9.05675 0.00720856 -0.955217
rclavicle -3.97569e-015 -8.34896e-015
rhumerus -37.8762 -30.3645 -69.6652
rradius 12.5047
rwrist 27.9117
rhand -29.7668 -17.0422
rfingers 7.12502
rthumb -3.09228 -46.9995
lclavicle -3.97569e-015 -8.34896e-015
lhumerus -16.1432 -11.0992 89.5037
lradius 32.3893
lwrist 10.736
lhand -33.0702 15.5329
lfingers 7.12502
lthumb -6.28202 45.4198
rfemur -30.9241 4.5653 15.1317
rtibia 32.0646
rfoot -19.9259 -25.395
rtoes -11.2156
lfemur 2.35766 -5.22483 -32.2447
ltibia 14.5283
lfoot -12.0048 7.42746
ltoes -12.3205
2253
root 0.0872439 15.7168 -2.77716 4730.22 -97.7019 -4727.09
lowerback 3.96235 0.678128 -9.6776
upperback -1.53168 0.344649 -0.154546
thorax -3.90069 0.400785 5.24889
lowerneck -16.7199 0.277401 0.493533
upperneck 19.9959 0.761478 -2.88048
head 9.05165 0.0126906 -0.981073
rclavicle 6.36111e-015 -4.37326e-015
rhumerus -37.6709 -31.7044 -69.0485
rradius 11.9764
rwrist 29.824
rhand -29.9078 -16.7863
rfingers 7.12502
rthumb -3.22837 -46.7416
lclavicle 6.36111e-015 -4.37326e-015
lhumerus -16.1458 -11.329 89.5922
lradius 32.76
lwrist 10.9742
lhand -33.0612 15.6958
lfingers 7.12502
lthumb -6.27333 45.5829
rfemur -30.8463 5.27168 14.8119
rtibia 29.5878
rfoot -19.6882 -25.3858
rtoes -12.1622
lfemur 3.42071 -4.94146 -32.3242
ltibia 13.2727
lfoot -11.5682 6.98869
ltoes -12.654
2254
root 0.105562 15.7294 -2.78387 4731.03 -97.6331 -4727.73
lowerback 3.82009 0.702983 -9.59562
upperback -1.55187 0.396639 -0.167535
thorax -3.84833 0.422615 5.1856
lowerneck -16.6557 0.260903 0.461597
upperneck 19.9714 0.755857 -2.92464
head 9.03154 0.00319769 -0.991248
rclavicle -1.43125e-014 6.95746e-015
rhumerus -37.2886 -32.352 -69.0351
rradius 11.7024
rwrist 30.8104
rhand -29.8737 -17.0242
rfingers 7.12502
rthumb -3.19545 -46.98
lclavicle -1.43125e-014 6.95746e-015
lhumerus -16.2487 -11.5699 89.7254
lradius 33.0904
lwrist 11.1673
lhand -33.122 15.6082
lfingers 7.12502
lthumb -6.33195 45.4935
rfemur -30.8519 6.24526 14.4777
rtibia 27.2959
rfoot -20.0831 -25.472
rtoes -11.7975
lfemur 4.41825 -4.75874 -32.2876
ltibia 12.0631
lfoot -11.0492 6.51348
ltoes -13.1226
2255
root 0.121368 15.742 -2.7931 4732.08 -97.5693 -4728.62
lowerback 3.61315 0.718497 -9.55282
upperback -1.53712 0.442818 -0.186009
thorax -3.72188 0.437797 5.13967
lowerneck -16.7574 0.260152 0.512086
upperneck 20.055 0.773272 -3.05731
head 9.08019 -0.0014032 -1.04394
rclavicle 4.77083e-015 2.54444e-014
rhumerus -36.9007 -33.0968 -69.023
rradius 11.4714
rwrist 31.9154
rhand -29.8732 -17.0954
rfingers 7.12502
rthumb -3.19496 -47.0512
lclavicle 4.77083e-015 2.54444e-014
lhumerus -16.3052 -11.7971 89.8459
lradius 33.3683
lwrist 11.4403
lhand -33.1119 15.662
lfingers 7.12502
lthumb -6.32221 45.5476
rfemur -30.9364 7.4009 14.0216
rtibia 25.2931
rfoot -20.3498 -25.596
rtoes -11.9445
lfemur 5.38567 -4.75125 -32.2809
ltibia 10.8903
lfoot -10.5352 6.2298
ltoes -13.3405
2256
root 0.136612 15.7509 -2.80195 4733.22 -97.4778 -4729.56
lowerback 3.44637 0.72946 -9.48382
upperback -1.60433 0.475519 -0.186674
thorax -3.70218 0.453707 5.09839
lowerneck -16.6646 0.279371 0.477021
upperneck 20.0673 0.818218 -3.10549
head 9.06861 0.0112742 -1.04892
rclavicle -1.07344e-014 7.95139e-016
rhumerus -36.4968 -33.549 -69.1198
rradius 11.2744
rwrist 32.575
rhand -29.8189 -17.1163
rfingers 7.12502
rthumb -3.14261 -47.0729
lclavicle -1.07344e-014 7.95139e-016
lhumerus -16.554 -11.9517 90.0623
lradius 33.6592
lwrist 11.739
lhand -33.1497 15.6601
lfingers 7.12502
lthumb -6.35875 45.5446
rfemur -31.1462 9.14225 13.3209
rtibia 23.6724
rfoot -21.1073 -26.1824
rtoes -12.2319
lfemur 6.2551 -4.71977 -32.2364
ltibia 9.87798
lfoot -10.0587 5.84628
ltoes -13.5089
2257
root 0.149457 15.7518 -2.81314 4734.9 -97.4346 -4731.09
lowerback 3.2864 0.74739 -9.50826
upperback -1.61563 0.513653 -0.216675
thorax -3.62953 0.469571 5.07879
lowerneck -16.7098 0.285455 0.48327
upperneck 20.1365 0.838219 -3.15872
head 9.10155 0.0137387 -1.06647
rclavicle -7.55382e-015 -1.70955e-014
rhumerus -36.0802 -34.1829 -69.1874
rradius 11.0981
rwrist 33.5421
rhand -29.8422 -17.0642
rfingers 7.12502
rthumb -3.16511 -47.0205
lclavicle -7.55382e-015 -1.70955e-014
lhumerus -16.7519 -12.0792 90.2645
lradius 33.8752
lwrist 11.8042
lhand -33.083 15.6885
lfingers 7.12502
lthumb -6.29438 45.575
rfemur -31.3993 11.1879 12.3751
rtibia 22.4629
rfoot -22.036 -27.1795
rtoes -12.8178
lfemur 7.16243 -4.70905 -32.2862
ltibia 8.91983
lfoot -9.59073 5.54854
ltoes -14.3344
